<svg xmlns="http://www.w3.org/2000/svg" width="900" height="200" viewBox="0 0 900 200"><rect width="100%" height="100%" fill="#DDDDDD"/><path fill="#999999" d="M227.19 109.13q.91 0 1.62.7l4.4 4.78q-3.65 4.52-8.99 6.93-5.33 2.4-12.8 2.4-6.68 0-12.01-2.28-5.34-2.28-9.11-6.35-3.78-4.07-5.79-9.71-2.02-5.64-2.02-12.32 0-6.77 2.16-12.39 2.16-5.63 6.08-9.69 3.92-4.07 9.36-6.33t12.04-2.26q6.55 0 11.64 2.15 5.08 2.16 8.65 5.65l-3.74 5.19q-.33.49-.85.87-.52.37-1.43.37-.62 0-1.29-.35-.66-.35-1.45-.87t-1.82-1.14q-1.04-.63-2.41-1.15-1.37-.51-3.18-.87-1.8-.35-4.17-.35-4.02 0-7.36 1.43t-5.75 4.15-3.74 6.64q-1.32 3.92-1.32 8.95 0 5.06 1.43 9t3.88 6.64 5.77 4.13 7.14 1.43q2.28 0 4.12-.25 1.85-.25 3.41-.79 1.55-.54 2.94-1.39t2.76-2.09q.42-.38.88-.6.45-.23.95-.23m30.92-29.09q4.73 0 8.61 1.53 3.88 1.54 6.64 4.36t4.25 6.89q1.5 4.07 1.5 9.09 0 5.06-1.5 9.13-1.49 4.06-4.25 6.93-2.76 2.86-6.64 4.4-3.88 1.53-8.61 1.53-4.78 0-8.68-1.53-3.9-1.54-6.66-4.4-2.76-2.87-4.27-6.93-1.52-4.07-1.52-9.13 0-5.02 1.52-9.09 1.51-4.07 4.27-6.89t6.66-4.36q3.9-1.53 8.68-1.53m0 35.98q5.31 0 7.86-3.57t2.55-10.46-2.55-10.5-7.86-3.61q-5.4 0-7.99 3.63-2.6 3.63-2.6 10.48t2.6 10.44q2.59 3.59 7.99 3.59m39.09 7.26h-10.25V80.7h6.27q1.99 0 2.61 1.87l.66 3.15q1.13-1.24 2.35-2.28t2.61-1.78q1.39-.75 2.99-1.19 1.6-.43 3.51-.43 4.02 0 6.62 2.18 2.59 2.17 3.88 5.79.99-2.12 2.49-3.64 1.49-1.51 3.28-2.47 1.78-.95 3.79-1.41 2.02-.45 4.05-.45 3.53 0 6.27 1.08 2.74 1.07 4.6 3.15 1.87 2.07 2.85 5.06.97 2.99.97 6.85v27.1H336.5v-27.1q0-4.07-1.78-6.12-1.79-2.05-5.23-2.05-1.58 0-2.93.53-1.35.54-2.36 1.56-1.02 1.02-1.6 2.55-.58 1.54-.58 3.53v27.1h-10.29v-27.1q0-4.27-1.73-6.22-1.72-1.95-5.04-1.95-2.24 0-4.17 1.09-1.93 1.1-3.59 3.01zm59.59-42.58h10.3v42.58h-10.3zm11.71-12.41q0 1.33-.54 2.49t-1.43 2.04q-.9.87-2.1 1.39t-2.57.52q-1.33 0-2.51-.52-1.19-.52-2.06-1.39-.87-.88-1.39-2.04t-.52-2.49q0-1.37.52-2.57t1.39-2.08q.87-.87 2.06-1.39 1.18-.51 2.51-.51 1.37 0 2.57.51 1.2.52 2.1 1.39.89.88 1.43 2.08t.54 2.57m17.93 14.28.7 3.36q1.29-1.29 2.72-2.39t3.03-1.86q1.6-.77 3.42-1.21 1.83-.43 3.99-.43 3.48 0 6.18 1.18t4.5 3.32q1.81 2.14 2.74 5.1.94 2.97.94 6.54v27.1h-10.26v-27.1q0-3.9-1.78-6.04-1.78-2.13-5.44-2.13-2.65 0-4.98 1.2-2.32 1.2-4.4 3.28v30.79h-10.25V80.7h6.27q1.99 0 2.62 1.87m53.49 18.38q1.91 0 3.32-.52 1.41-.51 2.34-1.43.94-.91 1.41-2.2.48-1.28.48-2.82 0-3.15-1.89-5-1.88-1.85-5.66-1.85t-5.67 1.85q-1.88 1.85-1.88 5 0 1.5.47 2.78.48 1.29 1.41 2.22.94.94 2.37 1.45 1.43.52 3.3.52m11.58 24.24q0-1.25-.75-2.03-.75-.79-2.03-1.23-1.29-.43-3.01-.64t-3.65-.31q-1.93-.11-3.99-.19-2.05-.08-4-.33-1.7.95-2.76 2.24t-1.06 2.99q0 1.12.56 2.09.56.98 1.78 1.68 1.23.71 3.18 1.1 1.95.4 4.77.4 2.86 0 4.94-.44 2.07-.43 3.42-1.2t1.97-1.83q.63-1.06.63-2.3m-2.04-43.04h12.25v3.82q0 1.83-2.2 2.24l-3.82.71q.87 2.2.87 4.81 0 3.16-1.27 5.71-1.26 2.55-3.5 4.33-2.24 1.79-5.29 2.76-3.05.98-6.58.98-1.25 0-2.41-.12-1.16-.13-2.28-.34-1.99 1.21-1.99 2.7 0 1.29 1.18 1.89t3.13.85 4.44.31 5.11.27q2.61.21 5.1.73t4.44 1.64 3.14 3.05q1.18 1.93 1.18 4.96 0 2.82-1.39 5.47-1.39 2.66-4.03 4.74-2.63 2.07-6.47 3.34-3.84 1.26-8.74 1.26-4.81 0-8.38-.93-3.57-.94-5.93-2.49-2.37-1.56-3.53-3.59-1.16-2.04-1.16-4.23 0-2.99 1.8-5.01 1.81-2.01 4.96-3.21-1.7-.87-2.7-2.33-.99-1.45-.99-3.81 0-.96.35-1.98.35-1.01 1.04-2.01.68-.99 1.72-1.89 1.04-.89 2.45-1.59-3.24-1.75-5.08-4.65-1.85-2.91-1.85-6.81 0-3.15 1.26-5.7 1.27-2.56 3.53-4.36 2.26-1.81 5.36-2.76 3.09-.96 6.74-.96 2.74 0 5.14.56 2.41.56 4.4 1.64m67.19 3.16L514.33 89q-.42.66-.87.93-.46.27-1.17.27-.74 0-1.59-.41-.85-.42-1.97-.93-1.12-.52-2.56-.94-1.43-.41-3.38-.41-3.03 0-4.75 1.28-1.72 1.29-1.72 3.36 0 1.37.89 2.31.89.93 2.37 1.64 1.47.7 3.34 1.26 1.86.56 3.79 1.23 1.93.66 3.8 1.51t3.34 2.16 2.37 3.13q.89 1.83.89 4.4 0 3.07-1.1 5.67-1.1 2.59-3.26 4.48t-5.33 2.95q-3.18 1.05-7.33 1.05-2.2 0-4.29-.39-2.1-.39-4.03-1.1t-3.57-1.66-2.88-2.08l2.37-3.9q.45-.7 1.07-1.07.63-.38 1.58-.38.96 0 1.81.54t1.97 1.16q1.12.63 2.63 1.16 1.52.54 3.84.54 1.83 0 3.14-.43 1.3-.44 2.15-1.14.85-.71 1.25-1.64.39-.94.39-1.93 0-1.5-.89-2.45t-2.37-1.66q-1.47-.71-3.36-1.27t-3.86-1.22-3.86-1.56q-1.88-.89-3.36-2.26-1.47-1.37-2.36-3.36-.9-1.99-.9-4.81 0-2.62 1.04-4.98 1.04-2.37 3.05-4.13 2.02-1.77 5.02-2.82 3.01-1.06 6.96-1.06 4.39 0 8 1.45 3.62 1.45 6.02 3.82m27.02-5.27q4.73 0 8.61 1.53 3.88 1.54 6.64 4.36t4.25 6.89q1.5 4.07 1.5 9.09 0 5.06-1.5 9.13-1.49 4.06-4.25 6.93-2.76 2.86-6.64 4.4-3.88 1.53-8.61 1.53-4.77 0-8.67-1.53-3.91-1.54-6.67-4.4-2.76-2.87-4.27-6.93-1.51-4.07-1.51-9.13 0-5.02 1.51-9.09t4.27-6.89 6.67-4.36q3.9-1.53 8.67-1.53m0 35.98q5.31 0 7.86-3.57 2.56-3.57 2.56-10.46t-2.56-10.5q-2.55-3.61-7.86-3.61-5.4 0-7.99 3.63t-2.59 10.48 2.59 10.44 7.99 3.59m47.68-35.98q4.73 0 8.61 1.53 3.88 1.54 6.64 4.36t4.26 6.89q1.49 4.07 1.49 9.09 0 5.06-1.49 9.13-1.5 4.06-4.26 6.93-2.76 2.86-6.64 4.4-3.88 1.53-8.61 1.53-4.77 0-8.67-1.53-3.9-1.54-6.66-4.4-2.76-2.87-4.28-6.93-1.51-4.07-1.51-9.13 0-5.02 1.51-9.09 1.52-4.07 4.28-6.89t6.66-4.36q3.9-1.53 8.67-1.53m0 35.98q5.31 0 7.87-3.57 2.55-3.57 2.55-10.46t-2.55-10.5q-2.56-3.61-7.87-3.61-5.39 0-7.99 3.63-2.59 3.63-2.59 10.48t2.59 10.44q2.6 3.59 7.99 3.59m37.73-33.45.7 3.36q1.29-1.29 2.72-2.39t3.03-1.86q1.6-.77 3.42-1.21 1.83-.43 3.99-.43 3.48 0 6.18 1.18t4.5 3.32q1.81 2.14 2.74 5.1.94 2.97.94 6.54v27.1h-10.25v-27.1q0-3.9-1.79-6.04-1.78-2.13-5.44-2.13-2.65 0-4.98 1.2-2.32 1.2-4.39 3.28v30.79h-10.26V80.7h6.27q1.99 0 2.62 1.87m36.43 35.07q0-1.29.48-2.45t1.31-1.99 1.99-1.33 2.49-.5 2.47.5 1.99 1.33 1.35 1.99.5 2.45q0 1.32-.5 2.47-.5 1.14-1.35 1.97t-1.99 1.3q-1.14.48-2.47.48t-2.49-.48q-1.16-.47-1.99-1.3t-1.31-1.97q-.48-1.15-.48-2.47m19.72 0q0-1.29.47-2.45.48-1.16 1.31-1.99t1.99-1.33 2.49-.5 2.47.5 1.99 1.33 1.35 1.99.5 2.45q0 1.32-.5 2.47-.5 1.14-1.35 1.97t-1.99 1.3q-1.14.48-2.47.48t-2.49-.48q-1.16-.47-1.99-1.3t-1.31-1.97q-.47-1.15-.47-2.47m19.71 0q0-1.29.48-2.45.47-1.16 1.3-1.99t1.99-1.33q1.17-.5 2.49-.5 1.33 0 2.47.5t2 1.33q.85.83 1.34 1.99.5 1.16.5 2.45 0 1.32-.5 2.47-.49 1.14-1.34 1.97-.86.83-2 1.3-1.14.48-2.47.48-1.32 0-2.49-.48-1.16-.47-1.99-1.3t-1.3-1.97q-.48-1.15-.48-2.47"/></svg>